# xmcd
#
# Track frame offsets:
# 150
# 13075
# 26552
# 39984
# 52915
# 65867
# 78243
# 91818
# 103823
# 116536
# 129921
# 141279
# 153283
# 164540
# 176492
# 189305
# 200969
# 212099
# 223879
# 234745
# 246508
# 256900
# 267576
# 278660
# 290298
# 301044
# 313492
# 323845
# 334165
#
# Disc length: 4597 seconds
#
#
# Revision: 2
# Processed by: cddbd v1.5.2PL0 Copyright (c) Steve Scherf et al.
# Submitted via: FreeRIP 2.945 
#
DISCID=b311f31d
DTITLE=Robert Johnson - Down at the Crossroads - the Robert Johnson Connection - disk 2
DYEAR=1900
DGENRE=Blues
TTITLE0=Kind hearted woman blues
TTITLE1=I believe I'll dust my broom
TTITLE2=Sweet home Chicago
TTITLE3=Ramblin' on my mind
TTITLE4=When you got a good friend
TTITLE5=Come on in my kitchen
TTITLE6=Terraplane blues
TTITLE7=Phonograph blues
TTITLE8=32-20 blues
TTITLE9=They're red hot
TTITLE10=Dead shrimp blues
TTITLE11=Cross road blues
TTITLE12=Walkin' blues
TTITLE13=Last fair deal gone down
TTITLE14=Preachin' blues
TTITLE15=If I had possession over judgement day
TTITLE16=Stones in my passageway
TTITLE17=I'm a steady rollin' man
TTITLE18=From four until late
TTITLE19=Hell hound on my trail
TTITLE20=Little queen of spades
TTITLE21=Malted milk
TTITLE22=Drunken hearted man
TTITLE23=Me and the devil blues
TTITLE24=Stop breakin' down blues
TTITLE25=Traveling riverside blues
TTITLE26=Honeymoon blues
TTITLE27=Love in vain
TTITLE28=Milkcow's calf blues
EXTD=
EXTT0=
EXTT1=
EXTT2=
EXTT3=
EXTT4=
EXTT5=
EXTT6=
EXTT7=
EXTT8=
EXTT9=
EXTT10=
EXTT11=
EXTT12=
EXTT13=
EXTT14=
EXTT15=
EXTT16=
EXTT17=
EXTT18=
EXTT19=
EXTT20=
EXTT21=
EXTT22=
EXTT23=
EXTT24=
EXTT25=
EXTT26=
EXTT27=
EXTT28=
PLAYORDER=
